# xmcd
#
# Track frame offsets: 
#        183
#        16190
#        42005
#        53143
#        79200
#        90715
#        104063
#        116648
#        128938
#        149343
#        164008
#        175563
#        187123
#        202050
#        215083
#        228010
#        242210
#        254583
#
# Disc length: 3538 seconds
#
# Revision: 3
# Processed by: cddbd v1.5.2PL0 Copyright (c) Steve Scherf et al.
# Submitted via: ExactAudioCopy v0.95b4
#
DISCID=090dd012
DTITLE=Bob Marley - Rockstar Music 27 - Bob Marley
DYEAR=1992
DGENRE=Reggae
TTITLE0=Kinky Reggae
TTITLE1=Natural Mystic
TTITLE2=Fussing and Fighting
TTITLE3=Rainbow Country
TTITLE4=400 Years
TTITLE5=Memphis
TTITLE6=Riding High
TTITLE7=Reaction
TTITLE8=Don't Rock My Boat
TTITLE9=Go Tell It On The Mountain
TTITLE10=There She Goes
TTITLE11=Mellow Mood
TTITLE12=Chances Are
TTITLE13=Hammer
TTITLE14=You Can't Do That To Me
TTITLE15=Touch Me
TTITLE16=Caution
TTITLE17=How Many Times
EXTD=g
EXTT0=
EXTT1=
EXTT2=
EXTT3=
EXTT4=
EXTT5=
EXTT6=
EXTT7=
EXTT8=
EXTT9=
EXTT10=
EXTT11=
EXTT12=
EXTT13=
EXTT14=
EXTT15=
EXTT16=
EXTT17=
PLAYORDER=
